<?xml version="1.0" encoding="UTF-8" standalone="no"?>
<!-- Created with Inkscape (http://www.inkscape.org/) -->

<svg
   xmlns:dc="http://purl.org/dc/elements/1.1/"
   xmlns:cc="http://creativecommons.org/ns#"
   xmlns:rdf="http://www.w3.org/1999/02/22-rdf-syntax-ns#"
   xmlns:svg="http://www.w3.org/2000/svg"
   xmlns="http://www.w3.org/2000/svg"
   xmlns:sodipodi="http://sodipodi.sourceforge.net/DTD/sodipodi-0.dtd"
   xmlns:inkscape="http://www.inkscape.org/namespaces/inkscape"
   width="150"
   height="150"
   viewBox="0 0 39.687499 39.687501"
   version="1.1"
   id="svg8"
   inkscape:version="0.92.3 (2405546, 2018-03-11)"
   sodipodi:docname="Espace insécable.svg">
  <defs
     id="defs2" />
  <sodipodi:namedview
     id="base"
     pagecolor="#ffffff"
     bordercolor="#666666"
     borderopacity="1.0"
     inkscape:pageopacity="0.0"
     inkscape:pageshadow="2"
     inkscape:zoom="0.49497475"
     inkscape:cx="-13.559323"
     inkscape:cy="-151.72201"
     inkscape:document-units="px"
     inkscape:current-layer="layer1"
     showgrid="false"
     units="px"
     inkscape:window-width="958"
     inkscape:window-height="592"
     inkscape:window-x="748"
     inkscape:window-y="365"
     inkscape:window-maximized="0"
     showguides="true"
     inkscape:guide-bbox="true">
    <sodipodi:guide
       position="19.84375,32.88393"
       orientation="1,0"
       id="guide856"
       inkscape:locked="false"
       inkscape:label=""
       inkscape:color="rgb(0,0,255)" />
    <sodipodi:guide
       position="38.837054,17.197917"
       orientation="0,1"
       id="guide858"
       inkscape:locked="false"
       inkscape:label=""
       inkscape:color="rgb(0,0,255)" />
    <sodipodi:guide
       position="63.499998,19.84375"
       orientation="0,1"
       id="guide876"
       inkscape:locked="false"
       inkscape:label=""
       inkscape:color="rgb(0,0,255)" />
  </sodipodi:namedview>
  <metadata
     id="metadata5">
    <rdf:RDF>
      <cc:Work
         rdf:about="">
        <dc:format>image/svg+xml</dc:format>
        <dc:type
           rdf:resource="http://purl.org/dc/dcmitype/StillImage" />
        <dc:title></dc:title>
      </cc:Work>
    </rdf:RDF>
  </metadata>
  <g
     inkscape:label="Calque 1"
     inkscape:groupmode="layer"
     id="layer1"
     transform="translate(0,-257.31249)">
    <g
       id="g874"
       transform="translate(0,-2.6458334)">
      <rect
         width="39.6875"
         rx="15.875"
         ry="7.9375"
         y="262.60425"
         x="0"
         height="34.395832"
         id="rect854"
         style="opacity:1;fill:#00ffff;fill-opacity:1;fill-rule:nonzero;stroke:none;stroke-width:5.59997177;stroke-miterlimit:4;stroke-dasharray:none;stroke-dashoffset:0;stroke-opacity:1;paint-order:markers fill stroke" />
      <g
         transform="translate(-44.544401,122.06895)"
         id="text817"
         style="font-style:normal;font-weight:normal;font-size:10.58333302px;line-height:1.25;font-family:sans-serif;letter-spacing:0px;word-spacing:0px;fill:#000000;fill-opacity:1;stroke:none;stroke-width:0.26458332"
         aria-label="&amp;nbsp
&amp;#160;">
        <path
           inkscape:connector-curvature="0"
           id="path829"
           style="font-style:normal;font-variant:normal;font-weight:normal;font-stretch:normal;font-family:'Courier Prime';-inkscape-font-specification:'Courier Prime';stroke-width:0.26458332"
           d="m 50.200696,152.69726 q -0.320394,0.37207 -0.713135,0.57877 -0.39274,0.20671 -0.862996,0.20671 -0.418579,0 -0.744141,-0.13436 -0.325561,-0.13953 -0.552937,-0.37207 -0.222209,-0.23771 -0.341065,-0.54777 -0.113688,-0.31523 -0.113688,-0.66146 0,-0.27389 0.07235,-0.5116 0.07235,-0.23771 0.201538,-0.43925 0.134359,-0.2067 0.320394,-0.38757 0.186035,-0.18087 0.413411,-0.3359 -0.227376,-0.26355 -0.37207,-0.58911 -0.139526,-0.32556 -0.139526,-0.7338 0,-0.34624 0.118856,-0.64596 0.124023,-0.29972 0.346232,-0.52193 0.227376,-0.22221 0.54777,-0.3514 0.320394,-0.12919 0.718302,-0.12919 0.465088,0 0.868164,0.15503 0.408244,0.14986 0.749308,0.3824 0.108521,0.0775 0.108521,0.27906 v 0.65629 q 0,0.18086 -0.08785,0.25838 -0.08268,0.0775 -0.299723,0.0775 -0.217041,0 -0.304891,-0.0775 -0.08268,-0.0775 -0.08268,-0.25838 v -0.46509 q -0.180868,-0.11369 -0.423747,-0.1757 -0.237712,-0.0672 -0.532267,-0.0672 -0.222209,0 -0.392741,0.0724 -0.170533,0.0672 -0.289388,0.1912 -0.113688,0.11886 -0.1757,0.27905 -0.06201,0.1602 -0.06201,0.34107 0,0.27905 0.108521,0.51159 0.113688,0.22738 0.320393,0.45992 l 1.51412,1.70533 q 0.206706,-0.45476 0.37207,-1.01803 0.02584,-0.093 0.08785,-0.15503 0.06201,-0.062 0.180868,-0.062 h 0.81132 q 0.175699,0 0.248046,0.0775 0.07751,0.0775 0.07751,0.27389 0,0.19637 -0.07751,0.27388 -0.07235,0.0775 -0.248046,0.0775 h -0.480591 q -0.08785,0.31006 -0.201538,0.59428 -0.108521,0.27905 -0.24288,0.5271 l 0.563274,0.63045 h 0.434082 q 0.175699,0 0.248046,0.0775 0.07751,0.0775 0.07751,0.27389 0,0.19637 -0.07751,0.27388 -0.07235,0.0775 -0.248046,0.0775 h -0.589112 q -0.113688,0 -0.217041,-0.0413 -0.103353,-0.0413 -0.186035,-0.12919 z m -1.576131,0.0207 q 0.325562,0 0.589111,-0.14987 0.268718,-0.15502 0.490926,-0.42891 l -1.348754,-1.51929 q -0.356568,0.25322 -0.511597,0.5271 -0.155029,0.27389 -0.155029,0.62012 0,0.20154 0.06718,0.37724 0.06718,0.1757 0.191203,0.30489 0.124023,0.12402 0.294555,0.19637 0.170533,0.0724 0.382406,0.0724 z" />
        <path
           inkscape:connector-curvature="0"
           id="path831"
           style="font-style:normal;font-variant:normal;font-weight:normal;font-stretch:normal;font-family:'Courier Prime';-inkscape-font-specification:'Courier Prime';stroke-width:0.26458332"
           d="m 53.709526,149.29695 h -0.5271 q -0.1757,0 -0.253214,-0.0775 -0.07235,-0.0775 -0.07235,-0.27388 0,-0.19637 0.07235,-0.27389 0.07751,-0.0775 0.253214,-0.0775 h 0.925008 q 0.1757,0 0.248047,0.0775 0.07752,0.0775 0.07752,0.27389 v 0.62011 q 0.341064,-0.53226 0.795817,-0.80615 0.454753,-0.27905 0.98702,-0.27905 0.356567,0 0.640787,0.11885 0.284221,0.11886 0.480591,0.3359 0.201538,0.21704 0.304891,0.53227 0.108521,0.31006 0.108521,0.69763 v 2.50114 h 0.423746 q 0.1757,0 0.248047,0.0775 0.07751,0.0775 0.07751,0.27389 0,0.19637 -0.07751,0.27388 -0.07235,0.0775 -0.248047,0.0775 h -1.674316 q -0.1757,0 -0.253214,-0.0775 -0.07235,-0.0775 -0.07235,-0.27388 0,-0.19637 0.07235,-0.27389 0.07751,-0.0775 0.253214,-0.0775 h 0.475423 v -2.42362 q 0,-0.22221 -0.05168,-0.40308 -0.05168,-0.18604 -0.155029,-0.31523 -0.103353,-0.13436 -0.26355,-0.2067 -0.15503,-0.0724 -0.366903,-0.0724 -0.330729,0 -0.630452,0.14469 -0.299724,0.1447 -0.5271,0.40308 -0.227376,0.25838 -0.361735,0.61495 -0.134359,0.35657 -0.134359,0.78031 v 1.47795 h 0.475423 q 0.1757,0 0.248047,0.0775 0.07751,0.0775 0.07751,0.27389 0,0.19637 -0.07751,0.27388 -0.07235,0.0775 -0.248047,0.0775 H 53.28578 q -0.1757,0 -0.253214,-0.0775 -0.07235,-0.0775 -0.07235,-0.27388 0,-0.19637 0.07235,-0.27389 0.07751,-0.0775 0.253214,-0.0775 h 0.423747 z" />
        <path
           inkscape:connector-curvature="0"
           id="path833"
           style="font-style:normal;font-variant:normal;font-weight:normal;font-stretch:normal;font-family:'Courier Prime';-inkscape-font-specification:'Courier Prime';stroke-width:0.26458332"
           d="m 59.848686,147.2919 h -0.5271 q -0.1757,0 -0.253214,-0.0775 -0.07235,-0.0775 -0.07235,-0.27389 0,-0.19637 0.07235,-0.27388 0.07751,-0.0775 0.253214,-0.0775 h 0.976685 q 0.1757,0 0.248047,0.0775 0.07751,0.0775 0.07751,0.27388 v 2.39262 q 0.310059,-0.39791 0.713135,-0.62528 0.408244,-0.22738 0.925008,-0.22738 0.480591,0 0.888835,0.17053 0.408244,0.17053 0.702799,0.49609 0.299724,0.3204 0.470256,0.78549 0.170532,0.46508 0.170532,1.04903 0,0.58394 -0.170532,1.04903 -0.170532,0.46509 -0.470256,0.79065 -0.294555,0.32039 -0.702799,0.49092 -0.408244,0.17054 -0.888835,0.17054 -0.516764,0 -0.945678,-0.22738 -0.423747,-0.23254 -0.744141,-0.65112 v 0.41341 q 0,0.19637 -0.07751,0.27388 -0.07235,0.0775 -0.248047,0.0775 H 59.42494 q -0.1757,0 -0.253214,-0.0775 -0.07235,-0.0775 -0.07235,-0.27388 0,-0.19637 0.07235,-0.27389 0.07751,-0.0775 0.253214,-0.0775 h 0.423747 z m 0.775146,3.6897 q 0,0.41341 0.118856,0.7338 0.118856,0.3204 0.330729,0.54777 0.211874,0.22221 0.501262,0.34107 0.294555,0.11369 0.63562,0.11369 0.351399,0 0.625285,-0.1292 0.273885,-0.12919 0.45992,-0.35656 0.186035,-0.23255 0.28422,-0.54777 0.09819,-0.3204 0.09819,-0.7028 0,-0.37724 -0.09819,-0.69763 -0.09819,-0.3204 -0.28422,-0.54777 -0.186035,-0.23255 -0.45992,-0.36174 -0.273886,-0.12919 -0.625285,-0.12919 -0.341065,0 -0.63562,0.11886 -0.289388,0.11368 -0.501262,0.34106 -0.211873,0.22221 -0.330729,0.54777 -0.118856,0.32039 -0.118856,0.72864 z" />
        <path
           inkscape:connector-curvature="0"
           id="path835"
           style="font-style:normal;font-variant:normal;font-weight:normal;font-stretch:normal;font-family:'Courier Prime';-inkscape-font-specification:'Courier Prime';stroke-width:0.26458332"
           d="m 66.850843,153.14684 q 0,0.18087 -0.08785,0.25838 -0.08268,0.0775 -0.299723,0.0775 -0.217041,0 -0.304891,-0.0775 -0.08268,-0.0775 -0.08268,-0.25838 v -1.24023 q 0,-0.18087 0.08268,-0.25839 0.08785,-0.0775 0.304891,-0.0775 0.113688,0 0.175699,0.0517 0.06201,0.0517 0.103353,0.16019 0.191203,0.50126 0.625285,0.72864 0.434082,0.22221 1.152384,0.22221 0.620118,0 0.930176,-0.21704 0.310059,-0.22221 0.310059,-0.57878 0,-0.18603 -0.118856,-0.29455 -0.118856,-0.11369 -0.320394,-0.18087 -0.227376,-0.0775 -0.527099,-0.11369 -0.299724,-0.0362 -0.630453,-0.0724 -0.330729,-0.0362 -0.661458,-0.093 -0.325562,-0.0568 -0.604614,-0.16537 -0.1757,-0.0672 -0.320394,-0.16536 -0.144694,-0.0982 -0.253215,-0.23255 -0.103353,-0.13436 -0.165364,-0.31006 -0.05684,-0.1757 -0.05684,-0.40307 0,-0.34623 0.139527,-0.60978 0.139526,-0.26872 0.382405,-0.44959 0.248047,-0.18087 0.578776,-0.27388 0.335897,-0.093 0.728638,-0.093 0.516764,0 0.925008,0.15503 0.413412,0.14986 0.707967,0.41341 v -0.23254 q 0,-0.18087 0.08268,-0.25839 0.08785,-0.0775 0.304891,-0.0775 0.217041,0 0.299723,0.0775 0.08785,0.0775 0.08785,0.25839 v 0.98185 q 0,0.18087 -0.08785,0.25838 -0.08268,0.0775 -0.299723,0.0775 -0.1757,0 -0.248047,-0.13435 -0.118856,-0.22221 -0.289388,-0.37207 -0.165365,-0.14987 -0.387574,-0.23772 -0.217041,-0.0879 -0.48059,-0.12402 -0.26355,-0.0362 -0.563273,-0.0362 -0.501262,0 -0.785482,0.1757 -0.279053,0.1757 -0.279053,0.50126 0,0.17053 0.108521,0.27388 0.113688,0.10336 0.310058,0.16537 0.217041,0.0723 0.506429,0.10852 0.289388,0.031 0.609782,0.0672 0.320394,0.031 0.645955,0.0827 0.325562,0.0465 0.604615,0.14986 0.191203,0.0724 0.351399,0.1757 0.160197,0.0982 0.273886,0.24288 0.118855,0.13953 0.180867,0.33073 0.06718,0.18604 0.06718,0.43408 0,0.34623 -0.134358,0.63045 -0.129191,0.28422 -0.387574,0.49093 -0.253214,0.20154 -0.630452,0.31006 -0.37207,0.11369 -0.852661,0.11369 -0.563273,0 -0.98702,-0.15503 -0.418579,-0.15503 -0.733805,-0.47026 z" />
        <path
           inkscape:connector-curvature="0"
           id="path837"
           style="font-style:normal;font-variant:normal;font-weight:normal;font-stretch:normal;font-family:'Courier Prime';-inkscape-font-specification:'Courier Prime';stroke-width:0.26458332"
           d="m 72.540417,149.29695 h -0.423746 q -0.1757,0 -0.253215,-0.0775 -0.07235,-0.0775 -0.07235,-0.27388 0,-0.19637 0.07235,-0.27389 0.07752,-0.0775 0.253215,-0.0775 h 0.821655 q 0.1757,0 0.248047,0.0775 0.07751,0.0775 0.07751,0.27389 v 0.41341 q 0.320394,-0.41858 0.744141,-0.64596 0.428914,-0.23254 0.945679,-0.23254 0.48059,0 0.888834,0.16536 0.408244,0.1602 0.7028,0.46509 0.299723,0.30489 0.470255,0.74414 0.170532,0.43925 0.170532,0.99736 0,0.5581 -0.170532,0.99735 -0.170532,0.43925 -0.470255,0.74414 -0.294556,0.30489 -0.7028,0.47026 -0.408244,0.1602 -0.888834,0.1602 -0.516765,0 -0.925008,-0.20671 -0.403077,-0.21187 -0.713135,-0.59945 v 2.27893 h 1.147217 q 0.175699,0 0.248046,0.0775 0.07752,0.0775 0.07752,0.27388 0,0.19637 -0.07752,0.27389 -0.07235,0.0775 -0.248046,0.0775 h -2.50114 q -0.1757,0 -0.253214,-0.0775 -0.07235,-0.0775 -0.07235,-0.27389 0,-0.19637 0.07235,-0.27388 0.07751,-0.0775 0.253214,-0.0775 h 0.578776 z m 0.775147,1.55546 q 0,0.3824 0.118856,0.68213 0.118855,0.29972 0.330729,0.50642 0.211873,0.20154 0.501261,0.31006 0.294556,0.10852 0.63562,0.10852 0.3514,0 0.625285,-0.11885 0.273885,-0.11886 0.45992,-0.33073 0.186035,-0.21704 0.284221,-0.5116 0.09819,-0.29455 0.09819,-0.64595 0,-0.3514 -0.09819,-0.64596 -0.09819,-0.29455 -0.284221,-0.50643 -0.186035,-0.21704 -0.45992,-0.33589 -0.273885,-0.11886 -0.625285,-0.11886 -0.341064,0 -0.63562,0.10852 -0.289388,0.10852 -0.501261,0.31523 -0.211874,0.20153 -0.330729,0.50126 -0.118856,0.29972 -0.118856,0.68213 z" />
        <path
           inkscape:connector-curvature="0"
           id="path839"
           style="font-style:normal;font-variant:normal;font-weight:normal;font-stretch:normal;font-family:'Courier Prime';-inkscape-font-specification:'Courier Prime';stroke-width:0.26458332"
           d="m 80.14202,149.35379 q 0,-0.18087 0.06718,-0.3359 0.07235,-0.16019 0.191203,-0.27905 0.118856,-0.11885 0.273885,-0.18603 0.160197,-0.0724 0.341065,-0.0724 0.180867,0 0.335896,0.0724 0.160197,0.0672 0.279053,0.18603 0.118856,0.11886 0.186035,0.27905 0.07235,0.15503 0.07235,0.3359 0,0.18087 -0.07235,0.34106 -0.06718,0.15503 -0.186035,0.27389 -0.118856,0.11886 -0.279053,0.1912 -0.155029,0.0672 -0.335896,0.0672 -0.180868,0 -0.341065,-0.0672 -0.155029,-0.0723 -0.273885,-0.1912 -0.118856,-0.11886 -0.191203,-0.27389 -0.06718,-0.16019 -0.06718,-0.34106 z m 0.28422,5.32267 q -0.05684,0.10852 -0.149861,0.1602 -0.08785,0.0517 -0.191203,0.0517 -0.07235,0 -0.134359,-0.0258 -0.06201,-0.0207 -0.10852,-0.0672 -0.04651,-0.0413 -0.06718,-0.10335 -0.0155,-0.062 0,-0.1447 l 0.537435,-2.4908 q 0.04651,-0.20671 0.268717,-0.20671 h 1.002523 q 0.129191,0 0.170532,0.0982 0.04651,0.093 -0.02584,0.22737 z" />
        <path
           inkscape:connector-curvature="0"
           id="path841"
           style="font-style:normal;font-variant:normal;font-weight:normal;font-stretch:normal;font-family:'Courier Prime';-inkscape-font-specification:'Courier Prime';stroke-width:0.26458332"
           d="m 50.200696,166.68098 q -0.320394,0.37207 -0.713135,0.57877 -0.39274,0.20671 -0.862996,0.20671 -0.418579,0 -0.744141,-0.13436 -0.325561,-0.13953 -0.552937,-0.37207 -0.222209,-0.23771 -0.341065,-0.54777 -0.113688,-0.31523 -0.113688,-0.66146 0,-0.27388 0.07235,-0.51159 0.07235,-0.23772 0.201538,-0.43925 0.134359,-0.20671 0.320394,-0.38758 0.186035,-0.18087 0.413411,-0.33589 -0.227376,-0.26355 -0.37207,-0.58912 -0.139526,-0.32556 -0.139526,-0.7338 0,-0.34623 0.118856,-0.64596 0.124023,-0.29972 0.346232,-0.52193 0.227376,-0.22221 0.54777,-0.3514 0.320394,-0.12919 0.718302,-0.12919 0.465088,0 0.868164,0.15503 0.408244,0.14986 0.749308,0.38241 0.108521,0.0775 0.108521,0.27905 v 0.65629 q 0,0.18087 -0.08785,0.25838 -0.08268,0.0775 -0.299723,0.0775 -0.217041,0 -0.304891,-0.0775 -0.08268,-0.0775 -0.08268,-0.25838 v -0.46509 q -0.180868,-0.11369 -0.423747,-0.1757 -0.237712,-0.0672 -0.532267,-0.0672 -0.222209,0 -0.392741,0.0724 -0.170533,0.0672 -0.289388,0.1912 -0.113688,0.11886 -0.1757,0.27905 -0.06201,0.1602 -0.06201,0.34107 0,0.27905 0.108521,0.5116 0.113688,0.22737 0.320393,0.45992 l 1.51412,1.70532 q 0.206706,-0.45475 0.37207,-1.01803 0.02584,-0.093 0.08785,-0.15503 0.06201,-0.062 0.180868,-0.062 h 0.81132 q 0.175699,0 0.248046,0.0775 0.07751,0.0775 0.07751,0.27388 0,0.19637 -0.07751,0.27389 -0.07235,0.0775 -0.248046,0.0775 h -0.480591 q -0.08785,0.31006 -0.201538,0.59428 -0.108521,0.27905 -0.24288,0.5271 l 0.563274,0.63045 h 0.434082 q 0.175699,0 0.248046,0.0775 0.07751,0.0775 0.07751,0.27388 0,0.19637 -0.07751,0.27389 -0.07235,0.0775 -0.248046,0.0775 h -0.589112 q -0.113688,0 -0.217041,-0.0413 -0.103353,-0.0413 -0.186035,-0.12919 z m -1.576131,0.0207 q 0.325562,0 0.589111,-0.14986 0.268718,-0.15503 0.490926,-0.42892 l -1.348754,-1.51928 q -0.356568,0.25321 -0.511597,0.52709 -0.155029,0.27389 -0.155029,0.62012 0,0.20154 0.06718,0.37724 0.06718,0.1757 0.191203,0.30489 0.124023,0.12402 0.294555,0.19637 0.170533,0.0724 0.382406,0.0724 z" />
        <path
           inkscape:connector-curvature="0"
           id="path843"
           style="font-style:normal;font-variant:normal;font-weight:normal;font-stretch:normal;font-family:'Courier Prime';-inkscape-font-specification:'Courier Prime';stroke-width:0.26458332"
           d="m 53.947237,165.63711 h -0.956014 q -0.175699,0 -0.253214,-0.0827 -0.07235,-0.0879 -0.07235,-0.28939 0,-0.20153 0.07235,-0.28422 0.07752,-0.0879 0.253214,-0.0879 h 1.188558 l 0.392741,-1.26607 h -1.064534 q -0.1757,0 -0.253215,-0.0827 -0.07235,-0.0879 -0.07235,-0.28939 0,-0.20154 0.07235,-0.28422 0.07751,-0.0879 0.253215,-0.0879 h 1.297078 l 0.506429,-1.60714 q 0.02584,-0.0879 0.103353,-0.12919 0.08268,-0.0413 0.1757,-0.0413 0.07751,0 0.149862,0.0258 0.07751,0.0207 0.129191,0.0672 0.05684,0.0465 0.08268,0.11369 0.02584,0.062 0,0.13952 l -0.449585,1.43144 h 1.131714 l 0.506429,-1.60714 q 0.02584,-0.0879 0.103353,-0.12919 0.08268,-0.0413 0.1757,-0.0413 0.07751,0 0.149861,0.0258 0.07751,0.0207 0.129191,0.0672 0.05684,0.0465 0.08268,0.11369 0.02584,0.062 0,0.13952 l -0.449585,1.43144 h 0.940511 q 0.1757,0 0.248047,0.0879 0.07751,0.0827 0.07751,0.28422 0,0.20154 -0.07751,0.28939 -0.07235,0.0827 -0.248047,0.0827 H 57.0995 l -0.397909,1.26607 h 1.054199 q 0.1757,0 0.248047,0.0879 0.07752,0.0827 0.07752,0.28422 0,0.20154 -0.07752,0.28939 -0.07235,0.0827 -0.248047,0.0827 h -1.286743 l -0.516764,1.65882 q -0.02584,0.0879 -0.108521,0.12919 -0.07751,0.0413 -0.170532,0.0413 -0.07751,0 -0.155029,-0.0258 -0.07235,-0.0207 -0.129191,-0.0672 -0.05168,-0.0465 -0.07751,-0.10852 -0.02584,-0.0672 0,-0.14469 l 0.465088,-1.48312 h -1.136881 l -0.516765,1.65882 q -0.02584,0.0879 -0.10852,0.12919 -0.07751,0.0413 -0.170532,0.0413 -0.07751,0 -0.15503,-0.0258 -0.07235,-0.0207 -0.129191,-0.0672 -0.05168,-0.0465 -0.07751,-0.10852 -0.02584,-0.0672 0,-0.14469 z m 0.925009,-0.74414 h 1.136881 l 0.392741,-1.26607 h -1.131714 z" />
        <path
           inkscape:connector-curvature="0"
           id="path845"
           style="font-style:normal;font-variant:normal;font-weight:normal;font-stretch:normal;font-family:'Courier Prime';-inkscape-font-specification:'Courier Prime';stroke-width:0.26458332"
           d="m 61.745211,166.64997 v -4.63021 l -1.281576,0.46509 q -0.113688,0.0413 -0.217041,-0.005 -0.09819,-0.0517 -0.160197,-0.24288 -0.06201,-0.1912 -0.0155,-0.29972 0.04651,-0.10852 0.170532,-0.14986 l 1.886189,-0.67696 q 0.165365,-0.0568 0.279053,0.0362 0.113688,0.0879 0.113688,0.28422 v 5.21932 h 1.317749 q 0.1757,0 0.248047,0.0775 0.07752,0.0775 0.07752,0.27388 0,0.19637 -0.07752,0.27389 -0.07235,0.0775 -0.248047,0.0775 h -3.482991 q -0.1757,0 -0.253215,-0.0775 -0.07235,-0.0775 -0.07235,-0.27389 0,-0.19637 0.07235,-0.27388 0.07751,-0.0775 0.253215,-0.0775 z" />
        <path
           inkscape:connector-curvature="0"
           id="path847"
           style="font-style:normal;font-variant:normal;font-weight:normal;font-stretch:normal;font-family:'Courier Prime';-inkscape-font-specification:'Courier Prime';stroke-width:0.26458332"
           d="m 67.073051,165.45108 q 0,0.27388 0.09302,0.50643 0.09302,0.22737 0.26355,0.39274 0.170532,0.16536 0.413411,0.25838 0.242879,0.093 0.542603,0.093 0.294555,0 0.532267,-0.0827 0.242879,-0.0827 0.413411,-0.23772 0.170533,-0.15502 0.26355,-0.37207 0.09302,-0.21704 0.09302,-0.48059 0,-0.26871 -0.09302,-0.48576 -0.08785,-0.2222 -0.258382,-0.37723 -0.165365,-0.15503 -0.408244,-0.23771 -0.237711,-0.0879 -0.542602,-0.0879 -0.289388,0 -0.532268,0.0827 -0.237711,0.0775 -0.413411,0.22737 -0.170532,0.1447 -0.268717,0.3514 -0.09819,0.20154 -0.09819,0.44959 z m 2.924886,-3.58635 q -0.713134,0.0362 -1.245402,0.22738 -0.527099,0.18604 -0.894002,0.50643 -0.366903,0.31523 -0.578776,0.74931 -0.211873,0.43408 -0.279053,0.96118 0.273885,-0.35657 0.661459,-0.5426 0.392741,-0.19121 0.837158,-0.19121 0.428914,0 0.795817,0.13953 0.366903,0.13953 0.63562,0.39791 0.268717,0.25321 0.418579,0.61495 0.155029,0.36173 0.155029,0.80098 0,0.41858 -0.155029,0.77515 -0.149862,0.35657 -0.428914,0.61495 -0.273885,0.25838 -0.666626,0.40308 -0.387573,0.14469 -0.868164,0.14469 -0.273885,0 -0.537435,-0.062 -0.258382,-0.062 -0.490926,-0.18604 -0.232544,-0.12919 -0.428915,-0.31522 -0.19637,-0.19121 -0.341064,-0.44442 -0.19637,-0.3359 -0.299723,-0.75964 -0.09819,-0.42892 -0.09819,-0.99219 0,-0.41341 0.08268,-0.83199 0.08785,-0.42375 0.273885,-0.81132 0.186035,-0.39274 0.475423,-0.73381 0.294556,-0.34623 0.702799,-0.60461 0.413412,-0.26355 0.950847,-0.42375 0.537435,-0.16536 1.214396,-0.19637 0.113688,-0.005 0.191203,0.0672 0.08268,0.0672 0.103353,0.27905 0.02067,0.23255 -0.03101,0.3204 -0.05168,0.0879 -0.15503,0.093 z" />
        <path
           inkscape:connector-curvature="0"
           id="path849"
           style="font-style:normal;font-variant:normal;font-weight:normal;font-stretch:normal;font-family:'Courier Prime';-inkscape-font-specification:'Courier Prime';stroke-width:0.26458332"
           d="m 72.46807,164.28836 q 0,-0.7183 0.15503,-1.30225 0.155029,-0.58911 0.439249,-1.00769 0.289388,-0.41858 0.692464,-0.64595 0.408244,-0.22738 0.914673,-0.22738 0.501262,0 0.909505,0.22738 0.408244,0.22737 0.692465,0.64595 0.289388,0.41858 0.444417,1.00769 0.155029,0.58395 0.155029,1.30225 0,0.7183 -0.155029,1.30741 -0.155029,0.58395 -0.444417,1.00253 -0.284221,0.41341 -0.692465,0.64078 -0.408243,0.22738 -0.909505,0.22738 -0.506429,0 -0.914673,-0.22738 -0.403076,-0.22737 -0.692464,-0.64078 -0.28422,-0.41858 -0.439249,-1.00253 -0.15503,-0.58911 -0.15503,-1.30741 z m 0.816488,0 q 0,0.57878 0.103353,1.02836 0.103353,0.44958 0.28422,0.75964 0.186035,0.30489 0.43925,0.46509 0.253214,0.1602 0.558105,0.1602 0.304891,0 0.558106,-0.1602 0.253214,-0.1602 0.434082,-0.46509 0.186035,-0.31006 0.289388,-0.75964 0.103353,-0.44958 0.103353,-1.02836 0,-0.57878 -0.103353,-1.02836 -0.103353,-0.44959 -0.289388,-0.75965 -0.180868,-0.31005 -0.434082,-0.47025 -0.253215,-0.1602 -0.558106,-0.1602 -0.304891,0 -0.558105,0.1602 -0.253215,0.1602 -0.43925,0.47025 -0.180867,0.31006 -0.28422,0.75965 -0.103353,0.44958 -0.103353,1.02836 z" />
        <path
           inkscape:connector-curvature="0"
           id="path851"
           style="font-style:normal;font-variant:normal;font-weight:normal;font-stretch:normal;font-family:'Courier Prime';-inkscape-font-specification:'Courier Prime';stroke-width:0.26458332"
           d="m 80.14202,163.33751 q 0,-0.18086 0.06718,-0.33589 0.07235,-0.1602 0.191203,-0.27906 0.118856,-0.11885 0.273885,-0.18603 0.160197,-0.0724 0.341065,-0.0724 0.180867,0 0.335896,0.0724 0.160197,0.0672 0.279053,0.18603 0.118856,0.11886 0.186035,0.27906 0.07235,0.15503 0.07235,0.33589 0,0.18087 -0.07235,0.34107 -0.06718,0.15503 -0.186035,0.27388 -0.118856,0.11886 -0.279053,0.1912 -0.155029,0.0672 -0.335896,0.0672 -0.180868,0 -0.341065,-0.0672 -0.155029,-0.0723 -0.273885,-0.1912 -0.118856,-0.11885 -0.191203,-0.27388 -0.06718,-0.1602 -0.06718,-0.34107 z m 0.28422,5.32268 q -0.05684,0.10852 -0.149861,0.16019 -0.08785,0.0517 -0.191203,0.0517 -0.07235,0 -0.134359,-0.0258 -0.06201,-0.0207 -0.10852,-0.0672 -0.04651,-0.0413 -0.06718,-0.10335 -0.0155,-0.062 0,-0.1447 l 0.537435,-2.4908 q 0.04651,-0.20671 0.268717,-0.20671 h 1.002523 q 0.129191,0 0.170532,0.0982 0.04651,0.093 -0.02584,0.22738 z" />
      </g>
    </g>
  </g>
</svg>
